<?xml version="1.0" standalone="no"?>
<!DOCTYPE svg PUBLIC "-//W3C//DTD SVG 20010904//EN"
 "http://www.w3.org/TR/2001/REC-SVG-20010904/DTD/svg10.dtd">
<svg version="1.0" xmlns="http://www.w3.org/2000/svg"
 width="260.000000pt" height="260.000000pt" viewBox="0 0 260.000000 260.000000"
 preserveAspectRatio="xMidYMid meet">
<metadata>
Created by potrace 1.14, written by Peter Selinger 2001-2017
</metadata>
<g transform="translate(0.000000,260.000000) scale(0.100000,-0.100000)"
fill="#000000" stroke="none">
<path d="M640 2329 c-10 -14 -38 -25 -85 -35 -100 -20 -115 -28 -115 -62 0
-42 19 -58 85 -69 152 -28 251 -91 305 -197 42 -82 42 -95 23 -521 -7 -148
-13 -386 -13 -528 0 -151 -4 -266 -10 -277 -16 -30 -69 -57 -169 -85 -151 -42
-180 -62 -201 -136 -7 -22 -5 -29 8 -33 425 -119 843 -167 972 -113 105 45
115 87 40 173 -27 31 -55 71 -61 89 l-12 31 -23 -23 c-36 -36 -80 -31 -145 17
-30 22 -73 52 -96 67 -23 16 -45 35 -49 43 -3 8 -9 57 -12 109 -4 73 0 124 18
225 l23 131 181 -1 c100 0 202 -4 228 -8 37 -6 65 -3 140 19 182 52 368 159
452 262 l30 36 -3 246 c-4 360 -17 409 -139 500 -131 98 -211 113 -538 98
l-230 -10 -64 31 c-74 37 -92 38 -277 16 -137 -17 -147 -16 -233 19 -9 4 -21
-2 -30 -14z m726 -259 c32 -14 95 -26 193 -35 81 -8 167 -21 192 -30 65 -23
113 -67 148 -137 36 -72 41 -145 14 -224 -25 -74 -124 -166 -243 -227 -85 -43
-102 -48 -160 -47 -47 0 -90 9 -150 30 -59 20 -104 30 -147 30 -50 0 -63 3
-67 18 -2 9 -19 88 -37 175 -23 114 -29 161 -21 166 6 4 17 61 23 126 7 66 15
124 20 129 4 4 30 3 58 -3 59 -12 96 -2 106 28 8 26 12 26 71 1z"/>
</g>
</svg>
